/* XPM */
static char *_1cc7e8c13c44dca9b929263b2f10a3d4URqgAXszY3YKZbh[] = {
/* columns rows colors chars-per-pixel */
"32 32 15 1 ",
"  c #28222A",
". c #740032",
"X c #44263F",
"o c #5C2C4C",
"O c #4B3F50",
"+ c #63545A",
"@ c #4A4667",
"# c #6B4C61",
"$ c #9D034B",
"% c #DC0066",
"& c #937052",
"* c #866C74",
"= c #A69287",
"- c #C9B5AA",
"; c #D2CC89",
/* pixels */
"---==--------==----==--------==-",
"********************************",
"-*****--------**-*****--------**",
"---++---------+----++---------+-",
"--==+=--===--++---==+=--===--++-",
"====+++======++=====+++======++=",
"**++++******+++***++++******+++*",
"++++++++++++++++++++++++++++++++",
"+++=-----=----=;;=----=-----=+++",
"++=-----=----=&;;&=----==----=++",
"++-----=------&&&&------------++",
"++=====*====*==&&==*====*=====++",
"++=====*====*======*====*=====++",
"===** .$$$$$$$$$$$$$$%.$$. **===",
"***==.$$$$$$$$$%$$$$$$$$$$.==***",
"**+==.$$$%%$$..$$$$$.$$$$$.==++*",
"+++==.$$$%%$$...$.$$$$$.$$.==+++",
"+++==.$$$$%$$...$$$$$$%..$.==+++",
"+****..$$$$$$$.$%$$$$$...$.*****",
"+**==..$$$$$$$$%%%$$$$$$$$.==***",
"+++==...%%$$$$%%%$$$$$$$$$.==+++",
"*++==..%%%$$..%%$$$$$$$%%$.*=+++",
"**+=*..%%%%...$$$$..$$%%%.******",
"OOOO**.$$%%.$$$$.%%%$$%%%.==OOOO",
"+++O==....$$$$$$.%%%%$.%..==++++",
"oooo==......$$%$$..%%%....==oooo",
"X&&X==......%%%....%%%....==&&&X",
"OOOO==.....%%%%%..%%%%%...==OOOO",
"+***==..%%%%%%%%%%%%%%%..%==****",
"O*++**%%%%%%%%%%%%%%%%%%%%**++++",
"O++++*%%%%%%%%%%%%%%%%%%%%*++++O",
"################@@@@@@@@@@@@@@@@"
};
