/* XPM */
static char *_a9da244042e4962ce3c053f9ef683dfQARTMTOAYAz1U3RU[] = {
/* columns rows colors chars-per-pixel */
"32 32 4 1 ",
"  c #F77622",
". c #FEAE34",
"X c #639BFF",
"o c white",
/* pixels */
"    XXXXXXXX              ....  ",
"  XXXXXXXXXXXX    XXXXXX        ",
" XXXXoooooooXXXXXXXXXXXXX       ",
"XXXXooXXXXXooXXXXXoooXXXXXXXXXXX",
"XXXXXXXXXXXXXXXooooXooooXXXXXXXX",
"XXoXXXXXXXXXXXXXXXXXXXXXXoXXXoXX",
"XooXXXXXXXXXXXXXXXXXXXXXXXXXXooX",
"XoXXXXXXXXXXXXXXXXXXXXXXXXXXXXoX",
"XoXXXXXXXXXXXXXXXXXXXXXXXXXXXXoX",
"XoXXXXXXXXXXXXXXXXXXXXXXXXXXXXoX",
"XoXXXXXXXXXXXXXXXXXXXXXXXXXXXXoX",
"XoXXXXXXXXXXXXXXXXXXXXXXXXXXXXoX",
"XooXXXXXXXXXXXXXXXXXXXXXXXXXXooX",
"XXoXXXXXXXXXXXXXXXXXXXXXXXXXXoXX",
"XXXXXXXXXXXXXXXXXXXXXXXXXXXXXXXX",
" XXXXXXXXXXXXXXXXXXXXXXXXXXXXXX ",
" XXoXXXXXXXXXXXXXXXXXXXXXXXXoXX ",
" XXoXXXXXXXXXXXXXXXXXXXXXXXXoXX ",
" XXoXXXXXXXXXXXXXXXXXXXXXXXXoXX ",
"XXooXXXXXXXXXXXXXXXXXXXXXXXXooXX",
"XXoXXXXXXXXXXXXXXXXXXXXXXXXXXoXX",
"XXooXXXXXXXXXXXXXXXXXXXXXXXXooXX",
"XXXoXXXXXXXXXXXXXXXXXXXXXXXXoXXX",
"XXXoXXXXXXXXXXXXXXXXXXXXXXXXoXXX",
"XXXoXXXXXXXXXXXXXXXXXXXXXXXXoXXX",
" XXXXXXXXXXXXXXXXXXXXXXXXXXXXXX ",
"  XXoXXXXXXXXXXXXXXXXXXXXXXoXX  ",
"  XXXXXXXXXXXXXXXXXXXXXXXXXXXX  ",
"  XXXXXXXXXXXXXXXXXXXXXXXXXXXX  ",
"  XXXXXXooooXooooXXXXXXXXXXXXX  ",
"  XXXXXXXXXoooXXXXXooXXXXXooXX  ",
"       XXXXXXXXXXXXXoooooooXXXX "
};
