/* XPM */
static char *_90ef06c80b0411ec80a7e7f9aa5700c0nb5oPHrsXiTX0KH[] = {
/* columns rows colors chars-per-pixel */
"32 32 8 1 ",
"  c None",
". c #04193F",
"X c #03396B",
"o c #C3242F",
"O c #E7333B",
"+ c #0696DB",
"@ c #0FEFFB",
"# c #FCFEFE",
/* pixels */
"                                ",
"                                ",
"                                ",
"                                ",
"                                ",
"                                ",
"              .....             ",
"            ..++@@@..           ",
"           .XX+@@@@@@.          ",
"          .XX..@@@@@@@.         ",
"         .XXX..@@@@@@@@.        ",
"         ..XX++@@...@@@.        ",
"        .#..+++@.##..@@@.       ",
"        .#..+++@.##..@@@.       ",
"        ....+++@.....@@@.       ",
"        ...X++++@...@@@@.       ",
"        .XXX++++@@@@@@@@.       ",
"         .XXX++++@@@@@@.        ",
"         .XXX..++++@@@@.        ",
"          .XX+++++++++.         ",
"          .XXX++++++oo.         ",
"          .oXXXXXoooOO.         ",
"          .OoooooOOOO.X.        ",
"          .OOOOOOOO..X+.        ",
"         .X.OOOOOO.X++++.       ",
"         .XXOOOO..XX++++.       ",
"         .XX.O..XX++X+++.       ",
"          ..X.XX+++++XX.        ",
"           .XXXXX+++++.         ",
"           .XXXX..++++.         ",
"            .XXX..++++.         ",
"            .XXX. .+++.         "
};
