/* XPM */
static char *_68b6fc958fe4090e7af32d698bb1bcbbIcJSUIsu8EyogjZ[] = {
/* columns rows colors chars-per-pixel */
"40 40 129 2 ",
"   c None",
".  c #000022",
"X  c #00072E",
"o  c #000E39",
"O  c #001137",
"+  c #02153C",
"@  c #0C1538",
"#  c #03193F",
"$  c #0D193C",
"%  c #131133",
"&  c #17183C",
"*  c #18183D",
"=  c #281738",
"-  c #281C3E",
";  c #3C1F3F",
":  c #021B42",
">  c #011F49",
",  c #171F44",
"<  c #2D1F40",
"1  c #03234B",
"2  c #032B4C",
"3  c #1A2044",
"4  c #17284B",
"5  c #1B2A4D",
"6  c #012753",
"7  c #032B55",
"8  c #012C5C",
"9  c #1C2C51",
"0  c #043052",
"q  c #02345B",
"w  c #053B5D",
"e  c #1E325D",
"r  c #1C3859",
"t  c #2D2346",
"y  c #24244A",
"u  c #382446",
"i  c #3B2748",
"p  c #22325E",
"a  c #2E3D5D",
"s  c #002F60",
"d  c #023364",
"f  c #013669",
"g  c #02396B",
"h  c #183461",
"j  c #013D71",
"k  c #32405D",
"l  c #044264",
"z  c #00406A",
"x  c #1C4F6D",
"c  c #034275",
"v  c #01467C",
"b  c #024A7F",
"n  c #055774",
"m  c #9C2434",
"M  c #95293E",
"N  c #BF222D",
"B  c #AF2836",
"V  c #A22639",
"C  c #A82C3D",
"Z  c #BC2633",
"A  c #BD2A36",
"S  c #BA2D3C",
"D  c #C0242F",
"F  c #C22936",
"G  c #CE2D37",
"H  c #C52C38",
"J  c #CE2F3A",
"K  c #D32F3B",
"L  c #C1313F",
"P  c #FB2729",
"I  c #E12B32",
"U  c #F32E33",
"Y  c #E4323A",
"T  c #E93138",
"R  c #F43237",
"E  c #FF3437",
"W  c #F53238",
"Q  c #A5384D",
"!  c #014F86",
"~  c #03548C",
"^  c #03649F",
"/  c #0075B3",
"(  c #0379B7",
")  c #037BBB",
"_  c #1883BE",
"`  c #2181BC",
"'  c #00A5BA",
"]  c #0383C3",
"[  c #0386C8",
"{  c #048ACB",
"}  c #158BC9",
"|  c #048DD2",
" . c #0491D5",
".. c #0B90D3",
"X. c #0495DB",
"o. c #0599DD",
"O. c #1392D5",
"+. c #07ACC4",
"@. c #07B4C6",
"#. c #0AB7CA",
"$. c #0ABCCE",
"%. c #06A4DF",
"&. c #06A8DF",
"*. c #0ABFD1",
"=. c #0397E2",
"-. c #059CE3",
";. c #03A4E6",
":. c #06AEE5",
">. c #04A1EA",
",. c #06B2EA",
"<. c #0BC1CF",
"1. c #0AC0D1",
"2. c #09CDE4",
"3. c #0BD9E6",
"4. c #0BDDEA",
"5. c #0BDDF2",
"6. c #0DE1ED",
"7. c #0EE8ED",
"8. c #0CE5F4",
"9. c #0FE9F5",
"0. c #0DECFA",
"q. c #0EF3FD",
"w. c #0EFBFF",
"e. c #BBC2CB",
"r. c #C6CDD5",
"t. c #DFD7DC",
"y. c #DFDDE3",
"u. c #DFDEE3",
"i. c #E0E6EA",
/* pixels */
"                                                                                ",
"                                                                                ",
"                                                                                ",
"                                                                                ",
"                                                                                ",
"                                                                                ",
"                                                                                ",
"                                                                                ",
"                                                                                ",
"                                                                                ",
"                                    > + : : 2                                   ",
"                                : 6 ( :.4.8.$.l 7                               ",
"                              1 d g [ 0.q.q.w.3.1.n                             ",
"                            > s d + 7 4.0.0.q.0.q.#.n                           ",
"                          1 7 g q 1 6 7.q.6.9.3.w.w.*.7                         ",
"                          k o 6 ~ ] { w.' x r 2 @.w.4.l                         ",
"                        9 e.4 1 ] -. .6.x t.u.3 w 6.q.$.2                       ",
"                        9 r.5 : ..X.X.9.r u.i.5 1 7.q.7.:                       ",
"                        X a X : X.X.o.2.2 3 5 . q 4.0.0.#                       ",
"                        O > : q X.X.| ,.+.w 1 q #.w.q.8.:                       ",
"                        : 8 g c [ o.X.;.0.8.8.6.w.w.w.$.2                       ",
"                          > d d ! ] { =.:.5.8.q.0.0.3.l                         ",
"                          : 8 f 7 7 8 ) | o.%.5.9.q.<.0                         ",
"                            > d v ) ..-.X.X. .>.} } z                           ",
"                            : p d ! ] X.X.O...` Q B %                           ",
"                            @ M e d j g e V Z S P F ,                           ",
"                            $ I D D Z D Z U R J H u d +                         ",
"                            , H R T Y Y Y R B = 5 j / d                         ",
"                          : 8 t G T Y R K A i g [  .>.( 1                       ",
"                          : g h L E K A t * f v ) X.-.{ :                       ",
"                          : d s u m - * g v ] ] ^ [ | ] 1                       ",
"                            : : 8 y d c ) X.-.X.( ~ 8 7                         ",
"                              : g d g f ! ( -.X.o.[ 1                           ",
"                              # q g g s + 6 [ X.X...:                           ",
"                                > d g d : 1 ( -.X...:                           ",
"                                : d f f +   j ] X.{ 1                           ",
"                                                                                ",
"                                                                                ",
"                                                                                ",
"                                                                                "
};
