/* XPM */
static char *c2c0e5ccc5b144fec563ff6b82282bd2m4AjAxXaly1EpAiw[] = {
/* columns rows colors chars-per-pixel */
"64 64 196 2 ",
"   c None",
".  c #04153C",
"X  c #0A163D",
"o  c #06193C",
"O  c #0C193E",
"+  c #101A3F",
"@  c #051740",
"#  c #081742",
"$  c #051840",
"%  c #0B1940",
"&  c #0D154C",
"*  c #121A42",
"=  c #15274A",
"-  c #1C2E50",
";  c #1C1565",
":  c #1F136C",
">  c #21146E",
",  c #231372",
"<  c #37206C",
"1  c #3A216E",
"2  c #3E336A",
"3  c #2D2671",
"4  c #3E2470",
"5  c #42346D",
"6  c #412773",
"7  c #463571",
"8  c #493771",
"9  c #493872",
"0  c #344563",
"q  c #374865",
"w  c #3F4274",
"e  c #45546F",
"r  c #465671",
"t  c #4B5A74",
"y  c #495772",
"u  c #505D77",
"i  c #414A73",
"p  c #516079",
"a  c #380B97",
"s  c #3A1196",
"d  c #3E109A",
"f  c #32118A",
"g  c #511C96",
"h  c #432196",
"j  c #5D3495",
"k  c #703D96",
"l  c #6C3397",
"z  c #440FA6",
"x  c #4311A4",
"c  c #540DBF",
"v  c #5223AA",
"b  c #7A2FA7",
"n  c #6B39BF",
"m  c #4E438B",
"M  c #764D95",
"N  c #6D778F",
"B  c #560DC1",
"V  c #580FC4",
"C  c #5E0BCF",
"Z  c #5E0BD0",
"A  c #5811C3",
"S  c #6F15D1",
"D  c #7A3ED1",
"F  c #700DE9",
"G  c #7509F4",
"H  c #7A0BF5",
"J  c #7A0AF9",
"K  c #7506F6",
"L  c #7E1AF3",
"P  c #700CE9",
"I  c #7243C1",
"U  c #8956A4",
"Y  c #8755A3",
"T  c #AC67BF",
"R  c #912FCA",
"E  c #A837D3",
"W  c #8A14F6",
"Q  c #8817F8",
"!  c #9116F7",
"~  c #8316EA",
"^  c #A31FF8",
"/  c #9A2CF5",
"(  c #9429F4",
")  c #933CF9",
"_  c #8E37F3",
"`  c #A523F7",
"'  c #A32DF6",
"]  c #AA26F9",
"[  c #B52EF8",
"{  c #BC32F9",
"}  c #B136EE",
"|  c #C333F9",
" . c #C032F7",
".. c #D33CFA",
"X. c #9E42C2",
"o. c #A043C3",
"O. c #AA59C2",
"+. c #B249D1",
"@. c #B95BD0",
"#. c #AD67C0",
"$. c #AE68C0",
"%. c #B569C7",
"&. c #BF6AD0",
"*. c #9A4BF6",
"=. c #9C4EF9",
"-. c #9A41F7",
";. c #9D50F7",
":. c #B749F5",
">. c #AF59F8",
",. c #B67DF8",
"<. c #C170CF",
"1. c #C371D0",
"2. c #C06FCF",
"3. c #DD4EF9",
"4. c #D844F9",
"5. c #DD54F7",
"6. c #C94DF6",
"7. c #E258F9",
"8. c #DD71E9",
"9. c #CE63F5",
"0. c #CE6BF9",
"q. c #DF61F3",
"w. c #D96EF5",
"e. c #D166F6",
"r. c #DF72FA",
"t. c #D87FF6",
"y. c #D064EA",
"u. c #E463F7",
"i. c #E567F9",
"p. c #EB75F5",
"a. c #EC7AF5",
"s. c #E174FA",
"d. c #EC75F8",
"f. c #F07AF8",
"g. c #F17DF6",
"h. c #7A8699",
"j. c #7D899B",
"k. c #788497",
"l. c #828D9F",
"z. c #848FA1",
"x. c #8B8BAE",
"c. c #8B95A6",
"v. c #A2ABB8",
"b. c #9A8AC5",
"n. c #AFB6C2",
"m. c #B0B7C3",
"M. c #B3BAC5",
"N. c #B7BCC8",
"B. c #BD87FB",
"V. c #B48AED",
"C. c #C7B6D4",
"Z. c #E380E9",
"A. c #E180E6",
"S. c #EE86F2",
"D. c #E885F9",
"F. c #F286F4",
"G. c #F389F5",
"H. c #F684F9",
"J. c #F789F8",
"K. c #F98BF9",
"L. c #EE9AFA",
"P. c #F49EF6",
"I. c #F394F7",
"U. c #D5B5FC",
"Y. c #DABAFC",
"T. c #D7B8FB",
"R. c #EBAAFA",
"E. c #F4A3F7",
"W. c #F9ACFA",
"Q. c #F6A7F7",
"!. c #F6BEF8",
"~. c #F5B7FD",
"^. c #E7B8F4",
"/. c #D194FB",
"(. c #B8C0C9",
"). c #C6CBD3",
"_. c #C9CED6",
"`. c #DEC8F8",
"'. c #E5C8FC",
"]. c #F3C5FB",
"[. c #F3CBFB",
"{. c #F8C3F9",
"}. c #F5D4FB",
"|. c #FADCFA",
" X c #F5D9F7",
".X c #EAEBEF",
"XX c #EAECF0",
"oX c #FAE4FB",
"OX c #F3ECFB",
"+X c #F3EFF6",
"@X c #EFF1F3",
"#X c #F3F5F6",
"$X c #F6F4FA",
"%X c #FAF6FD",
"&X c #FBFCFD",
"*X c #F7F9F9",
/* pixels */
"                                                                                                                                ",
"                                                                                                                                ",
"                                                                                                                                ",
"                                                                                                                                ",
"                                                                                                                                ",
"                                                                                                                                ",
"                                                                                                                                ",
"                                                                                                                                ",
"                                        % % O %                     $ $ o $                                                     ",
"                                        2 9 5 5                     > , , :                                                     ",
"                                    * 5 U T T U 5 *             % > x c c x : $                                                 ",
"                                    5 M <.S.F.<.M 5             > s C H G c , $                                                 ",
"                                O 2 Y &.Z.J.K.Z.<.Y 5 *     O > x C F J J B , $                                                 ",
"                                % 9 $.S.J.G.G.G.F.<.M 5     X > c G G J K Z s :                                                 ",
"                                O 9 T S.J.G.G.G.K.8.<.U 6 + X , A H J H G P Z x : $                                             ",
"                                O 5 U <.Z.G.G.G.G.H.a.@.l 4 1 g S ! H H K J G B > o                                             ",
"                                    5 M 2.F.F.G.G.a.u.6.E X.X.E } ] W K J J K V , %                                             ",
"                                    + 7 O.p.H.G.G.p.7.7.5.3.7.3...| ` ! ! Q J Z s >                                             ",
"                                    % 6 T u.f.G.F.F.p.p.p.p.d.u.3...| | { ] Q F Z x : $                                         ",
"                                    1 l E 7.f.G.G.G.G.F.F.F.g.f.7.3.......| ` Q G B > o                                         ",
"                                & 1 b +.y.p.g.G.G.G.G.F.G.G.F.F.g.u.5.4.4...| ] Q B , @                                         ",
"                                X 6 U 7.p.g.G.G.F.F.F.I.E.Q.Q.W.Q.I.D.s.r.s.r.6.( Z a >                                         ",
"                                * 6 O.p.H.G.G.G.G.F.G.P.{.|.|.|.|.}.[.].[.[.]./.-.F Z z : @                                     ",
"                                4 k 2.F.G.G.G.F.F.G.P.!.oX&X&X&X&X&X&X*X%X%X%X'.B.) L B , o                                     ",
"                            % < b +.8.S.G.G.G.F.F.P.{.oX$X#X#X#X$X*X*X&X&X&X&X$X`.B._ V , #                                     ",
"                            % 4 E q.g.S.G.G.F.G.E.{.oX.X_.M.M.m.M.)..X$X&X&X&X.X_.b.n z f ,                                     ",
"                            % 7 O.g.H.G.G.S.G.P.{.oX+X).k.t e y t k.).#X&X&X#X).k.i 3 f z z : @                                 ",
"                            % 7 T F.H.G.G.S.G.Q.|..X).l.q - 0 y t N v.)..X.X_.z.q - 0 m v d ; @                                 ",
"                            % 7 T S.J.G.G.F.G.W.|._.k.0 = 0 l.n.M.c.N j.).).j.0 = 0 j.x.m ; & .                                 ",
"                            O 7 T S.J.G.F.F.G.W. XN.t X o e m.@X@Xn.t p M.N.t O X t n.m.u $ . o                                 ",
"                            % 7 T S.J.G.F.F.G.W. XM.r o . e m.@X@Xn.e t n.m.t . o t M.M.t o . .                                 ",
"                            % 7 T G.J.G.G.F.G.W. XN.r o . 0 l.N.M.j.0 t n.M.y X o q j.j.q o . o                                 ",
"                            % 7 T F.J.G.F.F.F.W.|.N.t % . = 0 e y 0 - u M.M.u * . = 0 0 = . @ .                                 ",
"                            % 7 O.p.H.F.G.F.F.E.{.C.N q * . X . . = q j._._.j.0 = o . & ; ; & .                                 ",
"                            % 4 X.u.g.G.G.F.F.J.E.^.C.j.q % . . O 0 l.)..X.X).z.0 O X ; x s ; @                                 ",
"                            % < b +.8.F.G.G.G.F.G.Q. X).j.t r r y k.).$X&X&X$X).k.t e m v x ; o                                 ",
"                                < k 2.F.J.G.G.F.F.Q.|..X_.N.M.M.(._.XX&X&X&X&X.X_.N.m.x.m ,                                     ",
"                                % 7 O.d.F.G.G.F.F.P.{.}.[.}.OX#X*X*X&X&X&X&X&X&X#XOX`.b.w %                                     ",
"                                X 2 X.7.f.F.G.F.F.I.P.I.D.L.}.%X%X&X%X%X%X%X&X%X$X'.B.I 3 o                                     ",
"                                X < b +.8.F.G.F.G.G.G.p.u.s.R.].].].].^.Y.U.T.Y.U.V.D x : o                                     ",
"                                    1 k 2.F.F.F.G.F.F.D.p.p.r.s.r.s.s.0.>.=.=.;.*.I h ,                                         ",
"                                    O 8 #.F.J.F.G.F.G.G.F.p.i.5.s.s.r.0.>.) Q P C x , #                                         ",
"                                    + 8 T F.J.F.G.F.S.S.J.S.a.G.R.].].'.Y.B._ Z a >                                             ",
"                                    5 M 2.F.J.F.F.a.w.w.a.G.E.!.|.%X&X%XOXU.*.Z a ,                                             ",
"                                O 5 Y <.A.G.F.J.F.w.:.:.w.P.{.oX%X&X&X&X%XY.=.F Z z : $                                         ",
"                                O 5 T S.J.F.F.G.G.9./ / 9.Q.|.%X&X&X&X&X&X'.,.) L c , @                                         ",
"                                * 8 $.G.J.F.F.G.F.9./ / 9.Q.oX&X&X&X&X&X&XOX`.B._ V , $                                         ",
"                                5 M <.F.J.F.F.S.r.:./ } t.!.oX&X&X&X&X&X&X&X$XU.*.Z a :                                         ",
"                            % 2 U &.A.F.G.G.F.w.:./ [ 9.R.oX$X&X&X&X&X&X&X&X%XT.*.P Z z : @                                     ",
"                            % 7 T S.J.G.G.G.G.e./ ! [ r.[.%X&X&X&X&X&X&X&X&X&XT.=.K K B , @                                     ",
"                            % 9 %.G.J.G.F.F.S.e.( ! { s.[.%X&X&X&X&X&X&X&X&X$XT.=.J K B , $                                     ",
"                            % 7 $.G.K.G.G.S.w.:.' ^ 6.D.}.%X&X&X&X&X&X&X&X&X%XT.=.J K B , @                                     ",
"                            % 7 #.D.F.S.F.w.:.' [ | 5.P.}.%X&X&X&X&X&X&X&X&X%XU.=.J G c , o                                     ",
"                            % 2 Y &.y.0.9.:.' ` | 5.d.P.{.oX%X&X&X&X&X&X%XOX`.V.D V c x > @                                     ",
"                                2 j R ( / ' [ | ..7.d.I.Q.!.oX&X%X%X*X&X%X'.,.D h , : :                                         ",
"                                $ , z S ~ ` | ..3.u.p.F.J.P.~.].[.[.[.'.Y.B.) B , @ . .                                         ",
"                                    : g R { ..3.u.a.F.G.F.a.s.s.r.r.s.e.>.) L B , .                                             ",
"                                    % 6 R 3.7.u.f.F.F.A.<.O.o.E } { { ] W J K B , @                                             ",
"                                    O 5 T p.d.p.F.J.F.<.M 5 4 g S ! ! W J K K B , $                                             ",
"                                    O 7 #.S.J.G.G.J.G.%.9 O X , V H J J K P C z : @                                             ",
"                                    % 7 T F.K.G.F.J.S.T 5 o . > A K J K G C s >                                                 ",
"                                    % 9 T S.J.F.F.A.<.U 2 o . > B K K J G B , #                                                 ",
"                                    O 7 T F.J.J.F.<.M 5     o > B G K J G c > X                                                 ",
"                                    % 7 T S.J.J.F.T 8 +     @ , c G J J G c , @                                                 "
};
