/* XPM */
static char *_612744562fb4385d99ace54575f1310AjAc2qSEcnai4CDK[] = {
/* columns rows colors chars-per-pixel */
"32 32 116 2 ",
"   c None",
".  c #521513",
"X  c #690B0A",
"o  c #7C0A09",
"O  c #4D1E32",
"+  c #573027",
"@  c #763D3A",
"#  c #1C481B",
"$  c #394C2F",
"%  c #3C2647",
"&  c #3F3059",
"*  c #243064",
"=  c #243165",
"-  c #243166",
";  c #243266",
":  c #26376A",
">  c #343663",
",  c #303B69",
"<  c #36456D",
"1  c #2E4370",
"2  c #294777",
"3  c #2C4574",
"4  c #2A4978",
"5  c #3C4E74",
"6  c #704041",
"7  c #4D5876",
"8  c #9E0303",
"9  c #9C0909",
"0  c #9B1A1E",
"q  c #A90101",
"w  c #A90202",
"e  c #AE0202",
"r  c #B10505",
"t  c #B60808",
"y  c #A6171D",
"u  c #A51F1B",
"i  c #BC1010",
"p  c #B41913",
"a  c #BF1A16",
"s  c #BB3D2F",
"d  c #BE3C2E",
"f  c #A73934",
"g  c #C00E0E",
"h  c #C20E0F",
"j  c #C40F0F",
"k  c #C61212",
"l  c #D01717",
"z  c #D11818",
"x  c #D61A1A",
"c  c #D61B1B",
"v  c #D71C1C",
"b  c #DC1F1F",
"n  c #D92220",
"m  c #DF2021",
"M  c #D7322D",
"N  c #D13E32",
"B  c #E02121",
"V  c #E22323",
"C  c #E82626",
"Z  c #864439",
"A  c #91433A",
"S  c #B44436",
"D  c #BA4233",
"F  c #C4513C",
"G  c #893740",
"H  c #B24D41",
"J  c #B95446",
"K  c #BE5A46",
"L  c #92614B",
"P  c #936F5C",
"I  c #827954",
"U  c #A56755",
"Y  c #AD6252",
"T  c #BE7D60",
"R  c #C25546",
"E  c #D15646",
"W  c #CC7257",
"Q  c #C0755C",
"!  c #BA967C",
"~  c #C98B6E",
"^  c #CB9771",
"/  c #DD957F",
"(  c #2C5582",
")  c #365D85",
"_  c #3C688E",
"`  c #336E96",
"'  c #3B7296",
"]  c #477B99",
"[  c #706580",
"{  c #727786",
"}  c #667E95",
"|  c #A74DC5",
" . c #B74FFA",
".. c #C351F5",
"X. c #DC57F7",
"o. c #D856F8",
"O. c #E75AF7",
"+. c #6A8B98",
"@. c #6C899E",
"#. c #6C92A5",
"$. c #998886",
"%. c #89919B",
"&. c #A69284",
"*. c #A99984",
"=. c #A3949D",
"-. c #A8A6A3",
";. c #ADAEAB",
":. c #DDBB8B",
">. c #DEAB92",
",. c #E5BC8A",
"<. c #D9C599",
"1. c #EAC08D",
"2. c #EAC38F",
"3. c #ECC58F",
"4. c #E9CAB9",
"5. c #DCE0E0",
/* pixels */
"                                                                ",
"                                                                ",
"                                                                ",
"                                                                ",
"                                                                ",
"                                                                ",
"                                                                ",
"                                                                ",
"                                                                ",
"                                                                ",
"                                                                ",
"                                                                ",
"                                                                ",
"                      z                                         ",
"                    c c g b k                                   ",
"                  r v C m B l t                                 ",
"                k g B c i 9 8 e                                 ",
"              K K n k u A Z o q                                 ",
"              S Y M X + T L . q                                 ",
"              D U E P $ ^ I #                                   ",
"              p s N >.:.,.:.                                    ",
"X.o.O.      W d 0 y J ,.3.1.                                    ",
"     ...| =.>.F f & 7 ! *.                                      ",
"        [ 5.4.T G > ) { %.$.                                    ",
"                , 3 ` #.;.-.                                    ",
"                ; * 4 _ } @.                                    ",
"                ; ; : ( ' +.                                    ",
"                < 1 2 ] &.~                                     ",
"              @ 6       H                                       ",
"              % O       5                                       ",
"                                                                ",
"                                                                "
};
