/* XPM */
static char *_c12e0e6adf3443b894724ca9c93f95cNAJOQRuXkjcGwX44[] = {
/* columns rows colors chars-per-pixel */
"32 32 10 1 ",
"  c None",
". c black",
"X c #671372",
"o c #5D4242",
"O c #CE0000",
"+ c #896B62",
"@ c #D3975B",
"# c #973CA3",
"$ c #FFC386",
"% c white",
/* pixels */
"                                ",
"                                ",
"                                ",
"                                ",
"           $       @            ",
"           @$     @@            ",
"           @@$   @@@            ",
"           @+$$@@@@@            ",
"          @++$$$$$$@@           ",
"          @@+@..$@$$$.          ",
"          @@@...$$@$@.          ",
"          @@@..O$$$@$O          ",
"          @@@...$%$.%. X        ",
"       # @@@@@@@.%..%@XX X      ",
"     # ##@@@@@@.@@@@@@X++XX     ",
"    ##$$#@@@@@@@@@$$$@X+++X     ",
"    #$$$$@@@@@@@$$$$$$++++X     ",
"    #@$$+@@@@$$$$$$$$$$ooo+     ",
"    @++++@@@$$$$$$$@$$$oooo+    ",
"   @+++++@@@$$$$$$$@@$$ooooo+   ",
"  @++++++@@@@@@$$$$$@$@ooooo+   ",
"  @++++++o@@@@@@$$$$@o  ooooo+  ",
" @++++   @oo@@@@@@@oo+     oo+  ",
" @+      $$$oooooooo++       +  ",
" @       $$$$     ++++          ",
"         @$@$     +o+o          ",
"          $         +           ",
"                                ",
"                                ",
"                                ",
"                                ",
"                                "
};
