/* XPM */
static char *_3075c3afda74dbea72e9e01bcce22caWyN3HfspGKqPQlxl[] = {
/* columns rows colors chars-per-pixel */
"32 32 10 1 ",
"  c None",
". c black",
"X c #671372",
"o c #5D4242",
"O c #CE0000",
"+ c #896B62",
"@ c #D3975B",
"# c #973CA3",
"$ c #FFC386",
"% c white",
/* pixels */
"                                ",
"                                ",
"                                ",
"                                ",
"           $       @            ",
"           @$     @@            ",
"           @@$    @@            ",
"           @+$$@@@@@            ",
"          @++$$$$$$@@           ",
"          @@+@...@$$..          ",
"          @@@...$$@$@.          ",
"         @@@@..O$$$@$O          ",
"         @@@@...$$$...          ",
"         @@@@@@@.%..%.          ",
"         @@@@@@..%..%@          ",
"         @@@@@@@@@$$$@          ",
"        @@@@@@@$$$$$$@          ",
"        @@@@$$$$$$$$$$X++XX+    ",
"   @##$$@@@$$$$$$$@$$$oooooo+   ",
"  @+++++@@@$$$$$$$@@$$  ooooo+  ",
" @++++  @@@@@@$$$$$@$@       +  ",
" @      o@@@@@@$$$$@o           ",
"        @oo@@@@@@@@o+           ",
"        $$@ooooooooo+           ",
"        @$@$     +o+o           ",
"         $         +            ",
"                                ",
"                                ",
"                                ",
"                                ",
"                                ",
"                                "
};
