/* XPM */
static char *result[] = {
/* columns rows colors chars-per-pixel */
"32 32 115 2 ",
"   c black",
".  c #010101",
"X  c #020202",
"o  c gray1",
"O  c #040404",
"+  c gray2",
"@  c #060606",
"#  c #070707",
"$  c gray3",
"%  c #090909",
"&  c gray4",
"*  c #0B0B0B",
"=  c #0C0C0C",
"-  c gray5",
";  c #0E0E0E",
":  c gray6",
">  c #101010",
",  c #111111",
"<  c gray7",
"1  c #131313",
"2  c gray8",
"3  c #151515",
"4  c #161616",
"5  c gray9",
"6  c #181818",
"7  c #191919",
"8  c gray10",
"9  c #1B1B1B",
"0  c gray11",
"q  c #1D1D1D",
"w  c #1E1E1E",
"e  c gray12",
"r  c #202020",
"t  c gray13",
"y  c #222222",
"u  c #232323",
"i  c gray14",
"p  c #252525",
"a  c gray15",
"s  c #272727",
"d  c #282828",
"f  c gray16",
"g  c #2A2A2A",
"h  c gray17",
"j  c #2C2C2C",
"k  c #2D2D2D",
"l  c gray18",
"z  c #2F2F2F",
"x  c gray19",
"c  c #313131",
"v  c #323232",
"b  c gray20",
"n  c #343434",
"m  c #353535",
"M  c gray21",
"N  c #373737",
"B  c gray22",
"V  c #393939",
"C  c #3A3A3A",
"Z  c gray23",
"A  c #3C3C3C",
"S  c gray24",
"D  c #3E3E3E",
"F  c #3F3F3F",
"G  c gray25",
"H  c #414141",
"J  c gray26",
"K  c #434343",
"L  c #444444",
"P  c gray27",
"I  c #464646",
"U  c gray28",
"Y  c #484848",
"T  c #494949",
"R  c gray29",
"E  c #4B4B4B",
"W  c #4C4C4C",
"Q  c gray30",
"!  c #4E4E4E",
"~  c gray31",
"^  c #505050",
"/  c #515151",
"(  c gray32",
")  c #535353",
"_  c gray33",
"`  c #555555",
"'  c gray34",
"]  c #585858",
"[  c gray35",
"{  c #5A5A5A",
"}  c #5B5B5B",
"|  c gray36",
" . c #5D5D5D",
".. c #5F5F5F",
"X. c #606060",
"o. c gray38",
"O. c #626262",
"+. c gray39",
"@. c #656565",
"#. c gray40",
"$. c #676767",
"%. c #686868",
"&. c DimGray",
"*. c #6A6A6A",
"=. c gray42",
"-. c #6C6C6C",
";. c #6F6F6F",
":. c #717171",
">. c gray45",
",. c #777777",
"<. c #7C7C7C",
"1. c gray49",
"2. c #7E7E7E",
"3. c #808080",
"4. c None",
/* pixels */
"4.4.4.4.4.4.4.4.4.4.4.4.4.4.4.4.4.4.4.4.4.4.4.4.4.4.4.4.4.4.4.4.",
"4.4.4.4.4.4.4.4.4.4.@ < o e i 8 , & # , u Z 4.4.4.4.4.4.4.4.4.4.",
"4.4.4.4.4.4.4.4.q > P ..6 V O.} _ ! U D c y 6 p W 4.4.4.4.4.4.4.",
"4.4.4.4.4.4., < a ( #...G 0 W ^ ~ / _ ]  .X.n + > j +.4.4.4.4.4.",
"4.4.4.4.4.+ & h @.| E K D t l A A D H P E ~ 9 g Q < M 4.4.4.4.4.",
"4.4.4.4.+ Z ' e N K F A M j y f f g j z m f < T +.D 4 o.4.4.4.4.",
"4.4.4.  M :.$.K 5 l V v j d i i u u p d i : d I ) _ 4 H 4.4.4.4.",
"4.4.4.0 -.&./ G b 6 a s y w 0 8 8 9 q e 1 r j m I ) v < ^ 4.4.4.",
"4.4.  q ] ' H S M p 2 8 5 1 , > : > < > 4 y s g C Y ~ 6 q 4.4.4.",
"4.4.+ 2 > p V B j i 5 = - = * & & * = - < 7 r u l B t + = 4.4.4.",
"4.4.< [ G 7 4 t i 9 < ; & % $ # # # $ * - , 8 e 8 - > h < 4.4.4.",
"4.4.2 | ~ C l 9 2 1 > - % @ + O O O + @ & - > - & 9 C G 1 4.4.4.",
"4.4.> _ T N c a 7 : ; & @ O X X X X o + @ @ # > q s V M , [ 4.4.",
"4.4., R I b k y 5 : = # O X .     . X o O # - 2 w u n b > { 4.4.",
"4.4.3 H P c h r 3 ; & + o .         . X + # = < 0 y x M > ( 4.4.",
"4.4.7 B U x h e 1 : % + o .           X O # * , 0 y l S 2 N 4.4.",
"4.4.r g D g p 0 < ; % @ o .         . X + $ * , 0 u z L g 3 4.4.",
"4.4.u O & * ; = * * $ # O X .       . X @ % = < 8 9 w s p $ 4.4.",
"4.4.w p V j g w 4 < = $ + o X . . X o O # = ; 2 9 0 r e 4 # 4.4.",
"4.4.6 L _ V c u 0 2 ; & # + O o o O O @ & : , 6 i f Z W ] u 4.4.",
"4.4., / [ D M s 0 : < > * # @ + @ @ $ * ; , 2 0 s l J ) { 3 4.4.",
"4.4.* } O.L c 4 5 9 6 3 , - % # % & = : , 2 8 y g N R | Y O 4.4.",
"4.4.$  .[ t 3 u k f q 6 2 , ; $ ; ; > < 5 w t f x K _ O.f   4.4.",
"4.4.o d 2 i J P n d t t q 9 5 = 5 6 6 3 5 w f b A ^ X.] - 4.4.4.",
"4.4.4.. D -._ / A i k d i t 9 = 0 q e t t 9 7 p H | =.c   4.4.4.",
"4.4.4., *.2.&.Y a H K Z m c s ; d k z b B Z z 0 < p V ; 4.4.4.4.",
"4.4.4.6 G 3.,.h A ! Y L H D l ; v N M B S K !  .` w X y 4.4.4.4.",
"4.4.4.K 2 #.| i ;.%.| / T P c = Z L T ^ ] X.*.>. .9 u 4.4.4.4.4.",
"4.4.4.4.p u i z 1.<.,.;.$.O.G = ^  .} ) K F P v 2 f 4.4.4.4.4.4.",
"4.4.4.4.4.r & < d x N V b k 7 O e u q 4 5 q 0 y J 4.4.4.4.4.4.4.",
"4.4.4.4.4.4.4.4.4.4.4.4.4.4.4.4.4.4.4.4.4.4.4.4.4.4.4.4.4.4.4.4.",
"4.4.4.4.4.4.4.4.4.4.4.4.4.4.4.4.4.4.4.4.4.4.4.4.4.4.4.4.4.4.4.4."
};
