/* XPM */
static char *_c4aff570d7c4ecce793a7e46470a33cYjnaEpgygbal5wsU[] = {
/* columns rows colors chars-per-pixel */
"32 32 8 1 ",
"  c #5A7B01",
". c #699200",
"X c #729F00",
"o c #7BA800",
"O c #80B100",
"+ c #85B600",
"@ c #8DC300",
"# c #A1D700",
/* pixels */
"+o.@@o.@+.+..#Oo@+Xo+@o+o+.+#.o@",
"+Xo+@o+o+.+.o+oX+o.o+oX+Xo+o#Oo@",
"o.o+oX+Xo+oXXoXXoX.X@X.o.@oo+oX+",
"X.XoX.o@XoX.#XX.XX .#XoX.@XX@XXo",
"X .XX.X#.o..#X.@.#.o#+o.@@oX@+.+",
"..X.# o#+oX@@o #+#+o@+Xo+@o+o+.+",
"XoX.#Oo@+Xo+@o.#o+@X+o.o+oX+Xo+@",
".o.o@o.+o.o+oX@@oo@+o+.XoX.o.Xo@",
"+o.@@oX@X.+.Xo+@o+o+X+ .XX.X#.o@",
"+Xo+@o+o+X+..o+oX+Xo@oX .@ .#Oo@",
"o.o+oX+Xo+oX.XoX.o.X@Xo..#.o@oX+",
"X.XoX.o.XoX...X .#.o@+o.@#oX@+X+",
"X @XX.X@.X. .o..O#O@@+Xo+@o+o+.+",
"X.@.o .#..@.+o.@Ooo@+o+o+oX+Xo+o",
".o@+o.@#o.@++Xo@Oo+o+X+XoX.o.Xo#",
"Oo@+Xo+@o+o+o.o+oX+Xo@oXXX@X..X#",
"oX+o.o+oX+XoX.XoX.o.X@Xo..@. @o+",
"+XoX.X@X.o.@X..XX.#.o@+o.@@o.@+o",
"+.XX .#XoX.#. ..+.#Oo@+Xo+@o+o+X",
"oX.#.o#+o.@#..@.+o+oX+o.o+oX+Xo+",
"X@X#Oo@+Xo+@o.@+o+oXXoX.XoX.@.Xo",
".@o+@X+o.o+oo+o+.+XX.XX..XX.@.oX",
"@@oo@+o+.XoXX+Xo@oX..@. .#.o@+o.",
"+@o+o+X+..XX.o.X@Xo. @..@#Oo@+Xo",
"+oX@Xo+o@ ...#.o@+o.@@o.@+o++o.o",
"oX.@.ooX@. @.#Oo@+Xo+@o+o+X+oX.X",
"#Xo@+oX@@o.@o+oX+o.o+oX@Xo+o@X. ",
"#Oo@+Xo+@o+oXoXXoX.XoX.@.ooX@. @",
"+o++o.o+oX+XXXX.XX .#Xo@+oX@@o.@",
"+X+oX.XoX.o..XX.@. .#@o@+Xo+@o+o",
"o+oX@..XX.X. . .@.oo+@X+@.o+oX+@",
"XoX.@. @. ...#.o@+oX@@oo@+X+X.o@"
};
