/* XPM */
static char *result[] = {
/* columns rows colors chars-per-pixel */
"32 32 233 2 ",
"   c #1F583E",
".  c #1C5740",
"X  c #235641",
"o  c #205840",
"O  c #205940",
"+  c #225841",
"@  c #235841",
"#  c #255A41",
"$  c #255B41",
"%  c #255C42",
"&  c #265C42",
"*  c #265D42",
"=  c #275E42",
"-  c #275F42",
";  c #2A5B42",
":  c #2C5F43",
">  c #276542",
",  c #286042",
"<  c #296142",
"1  c #296242",
"2  c #2A6343",
"3  c #296443",
"4  c #2A6442",
"5  c #2A6443",
"6  c #2E6543",
"7  c #2C6743",
"8  c #2E6144",
"9  c #2F6344",
"0  c #296843",
"q  c #2A6843",
"w  c #2E6B43",
"e  c #326644",
"r  c #366845",
"t  c #306F44",
"y  c #316F44",
"u  c #327345",
"i  c #357045",
"p  c #337545",
"a  c #357744",
"s  c #3F7B47",
"d  c #387C45",
"f  c #387E46",
"g  c #626B47",
"h  c #6F674E",
"j  c #646848",
"k  c #6C7D51",
"l  c #777D61",
"z  c #9C2231",
"x  c #9E2231",
"c  c #9F2532",
"v  c #A02532",
"b  c #A12532",
"n  c #A22633",
"m  c #A32633",
"M  c #A62533",
"N  c #A42633",
"B  c #A52733",
"V  c #A72534",
"C  c #A52734",
"Z  c #A62734",
"A  c #A92634",
"S  c #AB2635",
"D  c #AD2735",
"F  c #A82834",
"G  c #A92834",
"H  c #AA2835",
"J  c #AB2835",
"K  c #AB2935",
"L  c #AC2935",
"P  c #B12A36",
"I  c #B22B37",
"U  c #B52A37",
"Y  c #B42B37",
"T  c #B72C38",
"R  c #B92B39",
"E  c #BA2D39",
"W  c #BC2C39",
"Q  c #BC2E39",
"!  c #BE2D3A",
"~  c #CA313D",
"^  c #CB313D",
"/  c #D1333F",
"(  c #D3333F",
")  c #D3353F",
"_  c #B94B3A",
"`  c #BA4C3A",
"'  c #BE4D3B",
"]  c #C04E3C",
"[  c #C24E3C",
"{  c #C54F3D",
"}  c #C64F3D",
"|  c #C9513E",
" . c #CE523F",
".. c #D63640",
"X. c #DA3641",
"o. c #DB3641",
"O. c #DD3642",
"+. c #DE3942",
"@. c #E63944",
"#. c #80694A",
"$. c #9B7257",
"%. c #9B7357",
"&. c #A17552",
"*. c #D25340",
"=. c #D85542",
"-. c #D95642",
";. c #DB5643",
":. c #DC5743",
">. c #DD5843",
",. c #DF5944",
"<. c #E05844",
"1. c #E15844",
"2. c #E15944",
"3. c #D67542",
"4. c #D67642",
"5. c #D67742",
"6. c #D77742",
"7. c #D77643",
"8. c #D67743",
"9. c #D77743",
"0. c #D77744",
"q. c #D87742",
"w. c #D87743",
"e. c #D67842",
"r. c #D87946",
"t. c #D87A46",
"y. c #348043",
"u. c #368045",
"i. c #3B8145",
"p. c #3A8147",
"a. c #3A8247",
"s. c #3A8347",
"d. c #3B8447",
"f. c #3C8547",
"g. c #3C8647",
"h. c #3D8847",
"j. c #3F8846",
"k. c #3A8248",
"l. c #408548",
"z. c #47834D",
"x. c #408C48",
"c. c #4D8E4E",
"v. c #459549",
"b. c #479849",
"n. c #479949",
"m. c #4B9F49",
"M. c #769357",
"N. c #4FA64A",
"B. c #50A84A",
"V. c #52AB4A",
"C. c #57B34B",
"Z. c #58B44B",
"A. c #5BB94B",
"S. c #61B550",
"D. c #7AB068",
"F. c #5FC04C",
"G. c #5FC14C",
"H. c #61C44C",
"J. c #62C64C",
"K. c #64C94D",
"L. c #67C94F",
"P. c #A28F5F",
"I. c #A49A5F",
"U. c #8C9875",
"Y. c #A48362",
"T. c #A48264",
"R. c #A69B61",
"E. c #B49265",
"W. c #B49365",
"Q. c #B69A65",
"!. c #B69E66",
"~. c #CA8061",
"^. c #DB9D73",
"/. c #E09763",
"(. c #E19D69",
"). c #E19D6A",
"_. c #C3A069",
"`. c #CEAA76",
"'. c #DCA673",
"]. c #DFA875",
"[. c #DAA47E",
"{. c #E2A570",
"}. c #E3A571",
"|. c #E4A571",
" X c #E4A672",
".X c #E4A773",
"XX c #E4A976",
"oX c #E5AA76",
"OX c #E4AB78",
"+X c #E4AB79",
"@X c #E5B07E",
"#X c #E5B17F",
"$X c #A0B382",
"%X c #C1B380",
"&X c #CCB583",
"*X c #E5B483",
"=X c #E6B483",
"-X c #E6B685",
";X c #E6B787",
":X c #E6B888",
">X c #E6BB8C",
",X c #E6BC8D",
"<X c #ECB989",
"1X c #ECB98A",
"2X c #F0BB8B",
"3X c #E7BE90",
"4X c #C7C38E",
"5X c #D9C597",
"6X c #E7C092",
"7X c #EBC79B",
"8X c #ECC698",
"9X c #E7CA9E",
"0X c #E8C99C",
"qX c #E8C99D",
"wX c #EBCAA2",
"eX c #E9CCA0",
"rX c #E9CCA1",
"tX c #E9CDA1",
"yX c #EACDA1",
"uX c #E9CDA2",
"iX c #E9CEA2",
"pX c #E9CEA3",
"aX c #E9CFA4",
"sX c #F0CEA3",
"dX c #E9D0A6",
"fX c #E9D1A7",
"gX c #E9D2A7",
"hX c #E9D2A8",
"jX c #E9D3A8",
"kX c #E9D3A9",
"lX c #EAD6AC",
"zX c #EAD6AD",
"xX c None",
/* pixels */
"xXxXxXxXxXxXxXxXxXxXxXxXxXxXxXxXxXxXxXxXxXxXxXxXxXxXxXxXxXxXxXxX",
"xXxXxXxXxXxXxXxXxXxXxXxXxXxXxXxXxXxXxXxXxXxXxXxXxXxXxXxXxXxXxXxX",
"xXxXxXxXxXxXxXxXxXxXxXxXxXxXxXxXxXxXxXxXxXxXxXxXxXxXxXxXxXxXxXxX",
"xXxXxXxXxXxXxXxXxXxXxXxXxXxXxXxXxXxXxXxXxXxXxXxXxXxXxXxXxXxXxXxX",
"xXxXxXxXxXxXxXxXxXn n n n n n n n n n n n n n xXxXxXxXxXxXxXxXxX",
"xXxXxXxXxXxXxXxXn n n n n n n n n n n n n n n n xXxXxXxXxXxXxXxX",
"xXxXxXxXxXxXxXn n n n n b c b n n n n n n b c b n xXxXxXxXxXxXxX",
"xXxXxXxXxXxXn n b v b b F T Z b b v b n b G T B b b xXxXxXxXxXxX",
"xXxXxXxXxXb b b m H N c P ) L v C H n b c I ) H v C K xXxXxXxXxX",
"xXxXxXxXxXm m b J ..Y c N G m c E ) Z b n B G m v Q +.xXxXxXxXxX",
"xXxXxXxXxX/ ( ! S O.U z D ~ A z W X.M x R ( ^ V ! o.@.xXxXxXxXxX",
"xXxXxXxXxX,.2.*.] -.} _ { ;.[ _ | =.' `  .1.:.] *.<.>.xXxXxXxXxX",
"xXxXxXxXxXe.5.9.w.8.9.w.6.4.6.q.6.4.q.q.6.5.8.w.9.5.e.xXxXxXxXxX",
"xXxXxXxXxXxX7.7.7.7.3.0.t.r.r.r.r.r.r.t.0.3.7.7.7.7.xXxXxXxXxXxX",
"xXxXxXxXxXxXxXxXxXxXxX/.).(.(.(.(.(.(.)./.xXxXxXxXxXxXxXxXxXxXxX",
"xXxXxXxXxXxXxXxXxXxXxXxX|.|.|. X X|..X.XxXxXxXxXxXxXxXxXxXxXxXxX",
"xXxXxXxXxXxXxXxXxXxXxXxX;X:X;XOX+X*X.X}.xXxXxXxXxXxXxXxXxXxXxXxX",
"xXxXxXxXxXxXxXxXxXxXxXxXgXtXjX>X,XtXoX|.xXxXxXxXxXxXxXxXxXxXxXxX",
"xXxXxXxXxXxXxXxXH.xXxXxX0X@XrXhXgX9X].{.xXxXxXxX& & xXxXxXxXxXxX",
"xXxXxXK.xXxXxXxXn.xXxXxXdXqXfXlX7X`.M._.xXxXxXxX& & xXxXxXxXxXxX",
"xXxXxXB.xXxXxXxXs.2 xXxXpX3XaXzXsX&Xc.!.xXxXxXxX& & xXxXxXxXxXxX",
"xXxXxXh.xXxXxXxXa., xXxX6X-XiXyX5X$Xz.Q.xXxXxX& & & xXxXxXxXxXxX",
"xXxXxXg.xXxXxXxXf , xX'.=XuXkX<XR.k.9 W.xXxXxX& & & xXxXxXxXxXxX",
"J.xXxXa F.xXxXxX< &   U.8X#XtX1XI.u.8 E.xXxX& & & & xXxXxXxXxXxX",
"m.xXxX4 i.xXxXxXp - O l [.XXeX2XP.q : Y.xXxX& & & & xX& xXxXxXxX",
"d.xXxX@ X xXxXxXu % o h ~.^.wX%Xk + ; %.$.. # $ & & xX& xXxXxXxX",
"v.xXw t 7 xXxXxX= y 0 g &.T.4XD.y.3 6 #.j > 5 * $ & xX& xXxXxXxX",
"G.d j.C.x.A.N.u w Z.b.l.s r S.L.V.f.d.e i h.p.1 # & & & & xXxXxX",
"xXxXxXxXxXxXxXxXxXxXxXxXxXxXxXxXxXxXxXxXxXxXxXxXxXxXxXxXxXxXxXxX",
"xXxXxXxXxXxXxXxXxXxXxXxXxXxXxXxXxXxXxXxXxXxXxXxXxXxXxXxXxXxXxXxX",
"xXxXxXxXxXxXxXxXxXxXxXxXxXxXxXxXxXxXxXxXxXxXxXxXxXxXxXxXxXxXxXxX",
"xXxXxXxXxXxXxXxXxXxXxXxXxXxXxXxXxXxXxXxXxXxXxXxXxXxXxXxXxXxXxXxX"
};
