/* XPM */
static char *a10482196dc948c1eff99168cf4daef7FVYAMXKfuslJxmDR[] = {
/* columns rows colors chars-per-pixel */
"32 32 93 2 ",
"   c #5F4932",
".  c #5E4833",
"X  c #664C2E",
"o  c #734F2F",
"O  c #6E522F",
"+  c #70532E",
"@  c #73542C",
"#  c #78572A",
"$  c #7D562F",
"%  c #604932",
"&  c #644C33",
"*  c #664D33",
"=  c #674E32",
"-  c #614B35",
";  c #634B34",
":  c #6A4B32",
">  c #6B4C32",
",  c #6C4C31",
"<  c #6A5031",
"1  c #6C5130",
"2  c #735133",
"3  c #775231",
"4  c #795330",
"5  c #7B5430",
"6  c #7C5A33",
"7  c #7E5B32",
"8  c #7F5C31",
"9  c #332C4A",
"0  c #342C4A",
"q  c #362E4F",
"w  c #37314A",
"e  c #38324C",
"r  c #3C3A49",
"t  c #3D394A",
"y  c #3D3B4A",
"u  c #3E3C4C",
"i  c #3F3D4C",
"p  c #3B3451",
"a  c #3B3551",
"s  c #423F4E",
"d  c #423350",
"f  c #423B55",
"g  c #423E55",
"h  c #443F56",
"j  c #4E3F5E",
"k  c #443F63",
"l  c #48444B",
"z  c #474550",
"x  c #444057",
"c  c #484651",
"v  c #484751",
"b  c #4D4C56",
"n  c #474358",
"m  c #4A4658",
"M  c #4C4758",
"N  c #4C4759",
"B  c #48445C",
"V  c #4B475E",
"C  c #514D5B",
"Z  c #504D5D",
"A  c #514E5D",
"S  c #534F5C",
"D  c #544E5D",
"F  c #54505C",
"G  c #464360",
"H  c #474460",
"J  c #474564",
"K  c #474269",
"L  c #5F5B63",
"P  c #545169",
"I  c #5A5D74",
"U  c #5C5E75",
"Y  c #605B63",
"T  c #636476",
"R  c #646577",
"E  c #64667A",
"W  c #65687E",
"Q  c #B3741F",
"!  c #865A2C",
"~  c #8D5D29",
"^  c #805C31",
"/  c #825E30",
"(  c #855F30",
")  c #87602F",
"_  c #8D642D",
"`  c #9D6826",
"'  c #91662C",
"]  c #996A29",
"[  c #A46B24",
"{  c #AA6F22",
"}  c #6B6F85",
"|  c #6B7086",
" . c #6C7189",
/* pixels */
"i r v r L r A | } A z L l L } L l L L L R l L L L L L L r z r r ",
"V v n T r Y } R T A A z l L E } L l L L l Z l L L L L L R n v n ",
"b n n L z L T L L L L z r Y L } L l l l | L l L L L L l L n n v ",
"V n n L L v L L L L T i E l L L L l Z A L } L l l l l Z L n n n ",
"V n n L L v L L L E z L L l L L L l L L L L l l Z l A L L n n n ",
"i n n L L v L L L v L L t L l L l L L L L l A } | Z r L L n n r ",
"V r n L L L r L L z L } R } l L l L L L l Z Z T R | L r L n r n ",
"V n r r v v L v L z | L L L } l L L L L l L L L L R L l r r n n ",
"V z r v L v L L L L R i L L R l L L l l r R L L L L l L v r v n ",
"s h v Y L v L L L R z L L L L t L l L L L l R L L L l L L v n r ",
"V n v | L v L L L v L L L L L L r L L | L L l L L L l L | v n n ",
"V n n L L L r L L z L } L L L L l L L L | L l L L r L L L n n n ",
"V v n L v v L v L v } L L L L L l R L L L | l L l L l l L n v n ",
"b L n v v L } L v v L L L L L l r R L L L L l l L | L l v n L v ",
"b r r L L | L R L t L L l L l l r L L L L L r L R L | L L r t v ",
"y n n Y E L L D P L s L l t L L l L L L L r L T L L L | L n n t ",
"m n x h C A A m N m r G F m Z Z F F m F H r N N N N D D h h h x ",
"| 9 x m N h p h N w p r m x 9 U U 9 m m r p w N h f f m m h 9 W ",
"K 2 q e w . . h q % > J 9 w : k k > e w J > % q f % % q w e X k ",
"1 k d 3 3 # 2 2 & 3 4   $ d B ; % B d < ; 2 2 * # 3 6 3 2 d 4 X ",
"@ @ + _ 4 4 3 ^ 5 7 # @ _ ! ! ~ ~ ~ ~ ] # ~ ~ ~ ] ~ ~ 3 8 3 & < ",
"! @ 4 [ : / ( { + _ _ _ Q _ _ Q Q ' _ Q _ _ _ , Q _ _ * ` 3 & < ",
"@ 1 5 / ( ( ! _ _ _ _ Q _ _ Q _ _ Q _ _ Q _ _ _ _ _ _ / 6 8 3 3 ",
"@ 6 1 ! { ( _ _ Q _ _ _ _ _ _ _ _ _ _ _ _ _ _ Q _ _ _ [ / / < < ",
"n ( 7 / ! _ _ _ _ _ _ _ _ _ _ _ _ _ _ _ _ _ _ _ _ _ _ _ / / / / ",
"( ^ / 7 ) ' _ _ _ _ _ _ _ _ _ _ _ _ _ _ _ _ _ _ _ _ _ _ _ _ ) ) ",
"( ! / / _ _ _ _ _ _ _ _ _ _ _ _ _ _ _ _ _ _ _ _ _ _ _ _ _ _ _ ) ",
"s _ _ _ _ ] ] ] ] ] ] ] ] ] ] ] ] ] ] ] ] ] ] ] ] ] _ _ _ _ _ _ ",
"_ _ _ ( ] ] ] ] ] ] ] ] ] ] ] ] ] ] ] ] ] ] ] ] ] ] ] ] _ _ _ _ ",
"_ _ _ _ ] ] ] ] ] ] ] ] ] ] ] ] ] ] ] ] ] ] ] ] ] ] ] ] ] ] _ _ ",
"_ _ _ _ ] ] ] ] ] ] ] ] ] ] ] ] ] ] ] ] ] ] ] ] ] ] ] ] ] ] _ _ ",
"_ _ ] ] ] ] ] ] ] ] ] ] ] ] ] ] ] ] ] ] ] ] ] ] ] ] ] ] ] ] ] _ "
};
