/* XPM */
static char *_b8f65aa89474461f464ef63e3c57ccc4jtqJfI7niRo43h6[] = {
/* columns rows colors chars-per-pixel */
"32 32 80 1 ",
"  c #5A9FDB",
". c #5AA0DB",
"X c #5BA0DB",
"o c #5AA7DA",
"O c #5BA0DC",
"+ c #5CA1DC",
"@ c #5DA3DC",
"# c #5EA5DD",
"$ c #5BA8DA",
"% c #5BA8DB",
"& c #5DAADB",
"* c #5AAFD9",
"= c #5EABDC",
"- c #5FADDD",
"; c #5BB0D9",
": c #5BB0DA",
"> c #5CB1DA",
", c #5EB3DC",
"< c #5FB4DC",
"1 c #5FB5DC",
"2 c #60A6DE",
"3 c #60A7DF",
"4 c #61A8DF",
"5 c #62A9DF",
"6 c #60AEDE",
"7 c #62B1DF",
"8 c #63B1DF",
"9 c #63B2DF",
"0 c #60B5DC",
"q c #60B6DD",
"w c #63B8DE",
"e c #64B9DF",
"r c #64BADF",
"t c #66BADF",
"y c #67BBDF",
"u c #67BCDF",
"i c #62AAE0",
"p c #63ABE0",
"a c #66ACE1",
"s c #67AFE2",
"d c #68AFE2",
"f c #67B0E2",
"g c #67B1E3",
"h c #66B5E1",
"j c #68B1E3",
"k c #69B1E3",
"l c #6AB1E3",
"z c #69B6E2",
"x c #6AB4E4",
"c c #6CB4E4",
"v c #6CB4E5",
"b c #6EB7E6",
"n c #65BBE0",
"m c #67BDE1",
"M c #6BB9E3",
"N c #6BBAE3",
"B c #69BFE1",
"V c #6BBFE2",
"C c #6FB9E6",
"Z c #6DBCE4",
"A c #6CBCE5",
"S c #70B9E7",
"D c #71BBE8",
"F c #71BCE8",
"G c #73BEE9",
"H c #74BFE9",
"J c #6BC0E2",
"K c #6BC1E3",
"L c #6DC2E3",
"P c #6EC2E4",
"I c #6EC4E4",
"U c #6FC5E5",
"Y c #71C1E7",
"T c #72C1E7",
"R c #70C6E6",
"E c #71C6E6",
"W c #71C7E6",
"Q c #73C3E8",
"! c #74C4E8",
"~ c #74CAE8",
/* pixels */
"Gbzu:++kO&:O+:f  +k7hfxfi#+NutzG",
"ELkX+<<J<,&OXX:uuwuqdzxxkq:k5,<h",
"qkdk#if7Nzk X  fd+3VhVVVnsg+XX q",
"sO+kcCSGus#ssssqd+ 3CSIEfcO:*#om",
"  +#3STbVw<# at*  +&#c70#kstfsso",
"*tddbSVNsd6,*os * +&*V,,,X *f5  ",
"&z*,qPhfs3#O& ssk,00kk++*:$$5sX#",
"tk333#bA33+ swX#EESS3+d&+5futVVf",
"SEks5#cmVkd77o&wxNGxf#o5d5 * 5FG",
"z~GGSkdO+*,+ s+dJPxG5:ssX+** kfk",
"sTVmtX+d oooXfk5gGEPNt**oo&*s##s",
"JCi5#**y$ o,XX kgi<#XXss++#V*  #",
"sf OXX,38dbt6 +mJNOXOOXXcPIxVufu",
"oss   q  5kTTVu+ nO+O#O#VmxpOXXX",
"wohssw:o 3ddI#X+$VV#pIVV&ffpOX w",
"O  ** s *066k###3kkJQxif*h<<::uu",
"**$X sss5*+dkk3fa5Nikk5ksX:sss  ",
"sfJmkk# +tt&&3CFGCtq35#O ut   s5",
"s#im5sCNz+++#7sGcVs#:&$o7 oo    ",
"f7JCtVLquu +3qmTQQP<5$**uu  o  s",
"uIVNkfks3t$ *bbsfm3k++ a *5dtt7$",
"+5Icd55kd5tNtkkbi<#kddaaddyM5k7k",
" ,Pckddds5 o+++df<nho  7** *++ d",
"ss%&    dX**X+++hzs  **t   *d533",
" s **  p6**#$***:uXX * s5ddqVJCk",
" s*oo*:Xds&  X  f5*** sf  *MLTf+",
"o6ss  X$+aso 5fs5d5kqttt *ok2*<:",
"nnsas   qtwVVX  5***#   td5+ XXX",
"a **6ttt ++awV,#&7&&  +  *mwdaod",
"*** XXs7 +5kV8ddk5s o,+ksssoo*n*",
"ky  aa  wd8S!b++  ddkMVVzhoo:$ d",
"dMddaadsd*066k    833tqs3+hm$ #a"
};
